<?xml version="1.0" encoding="UTF-8" standalone="no"?>
<!DOCTYPE svg PUBLIC "-//W3C//DTD SVG 1.1//EN" "http://www.w3.org/Graphics/SVG/1.1/DTD/svg11.dtd">
<svg version="1.1" xmlns="http://www.w3.org/2000/svg" xmlns:xlink="http://www.w3.org/1999/xlink" preserveAspectRatio="xMidYMid meet" viewBox="0 0 640 640" width="640" height="640"><defs><path d="M222.75 456.09L200 195.75L450 195.75L427.22 456.04L324.84 485L324.84 485L222.75 456.09Z" id="c1oMSrQitj"></path><path d="M427.18 217.03L325 217.03L325 462.87L407.72 439.47L407.72 439.47L427.18 217.03Z" id="govb2r9vm"></path><path d="M254.96 345.52L325 345.52L325 313.59L252.15 313.59L252.15 313.59L254.96 345.52Z" id="auAOc9DXu"></path><path d="M249.36 280.89L325 280.89L325 248.96L246.52 248.96L246.52 248.96L249.36 280.89Z" id="c2v8VmV59"></path><path d="M324.86 396.55L290 386.95L287.77 361.48L256.36 361.48L260.74 411.62L324.85 429.77L325 429.73L325 396.51L325 396.51L324.86 396.55Z" id="a6Yj68RT4"></path><path d="M296.74 125L296.74 141.17L274.68 141.17L274.68 157.34L296.74 157.34L296.74 173.52L258.83 173.52L258.83 125L258.83 125L296.74 125Z" id="arfJWzXRu"></path><path d="M342.23 125L342.23 139.06L320.17 139.06L320.17 141.88L342.23 141.88L342.23 174.22L304.32 174.22L304.32 159.45L326.37 159.45L326.37 156.64L304.32 156.64L304.32 125L304.32 125L342.23 125Z" id="a3dkEW6tZu"></path><path d="M387.71 125L387.71 139.06L365.66 139.06L365.66 141.88L387.71 141.88L387.71 174.22L349.81 174.22L349.81 159.45L371.86 159.45L371.86 156.64L349.81 156.64L349.81 125L349.81 125L387.71 125Z" id="bVBxjImRX"></path><path d="M403.29 248.96L324.89 248.96L324.89 280.89L368.99 280.89L366.14 313.59L324.89 313.59L324.89 345.52L363.43 345.52L359.79 386.93L324.89 396.54L324.89 429.76L389.05 411.62L389.52 406.22L396.87 322.16L397.64 313.59L397.64 313.59L403.29 248.96Z" id="a2BGWXkwJ"></path></defs><g><g><g><use xlink:href="#c1oMSrQitj" opacity="1" fill="#264de4" fill-opacity="1"></use><g><use xlink:href="#c1oMSrQitj" opacity="1" fill-opacity="0" stroke="#000000" stroke-width="1" stroke-opacity="0"></use></g></g><g><use xlink:href="#govb2r9vm" opacity="1" fill="#2965f1" fill-opacity="1"></use><g><use xlink:href="#govb2r9vm" opacity="1" fill-opacity="0" stroke="#000000" stroke-width="1" stroke-opacity="0"></use></g></g><g><use xlink:href="#auAOc9DXu" opacity="1" fill="#ebebeb" fill-opacity="1"></use><g><use xlink:href="#auAOc9DXu" opacity="1" fill-opacity="0" stroke="#000000" stroke-width="1" stroke-opacity="0"></use></g></g><g><use xlink:href="#c2v8VmV59" opacity="1" fill="#ebebeb" fill-opacity="1"></use><g><use xlink:href="#c2v8VmV59" opacity="1" fill-opacity="0" stroke="#000000" stroke-width="1" stroke-opacity="0"></use></g></g><g><use xlink:href="#a6Yj68RT4" opacity="1" fill="#ebebeb" fill-opacity="1"></use><g><use xlink:href="#a6Yj68RT4" opacity="1" fill-opacity="0" stroke="#000000" stroke-width="1" stroke-opacity="0"></use></g></g><g><use xlink:href="#arfJWzXRu" opacity="1" fill="#000000" fill-opacity="1"></use><g><use xlink:href="#arfJWzXRu" opacity="1" fill-opacity="0" stroke="#000000" stroke-width="1" stroke-opacity="0"></use></g></g><g><use xlink:href="#a3dkEW6tZu" opacity="1" fill="#000000" fill-opacity="1"></use><g><use xlink:href="#a3dkEW6tZu" opacity="1" fill-opacity="0" stroke="#000000" stroke-width="1" stroke-opacity="0"></use></g></g><g><use xlink:href="#bVBxjImRX" opacity="1" fill="#000000" fill-opacity="1"></use><g><use xlink:href="#bVBxjImRX" opacity="1" fill-opacity="0" stroke="#000000" stroke-width="1" stroke-opacity="0"></use></g></g><g><use xlink:href="#a2BGWXkwJ" opacity="1" fill="#ffffff" fill-opacity="1"></use><g><use xlink:href="#a2BGWXkwJ" opacity="1" fill-opacity="0" stroke="#000000" stroke-width="1" stroke-opacity="0"></use></g></g></g></g></svg>