<?xml version="1.0" encoding="UTF-8" standalone="no"?>
<!DOCTYPE svg PUBLIC "-//W3C//DTD SVG 1.1//EN" "http://www.w3.org/Graphics/SVG/1.1/DTD/svg11.dtd">
<svg version="1.1" xmlns="http://www.w3.org/2000/svg" xmlns:xlink="http://www.w3.org/1999/xlink" preserveAspectRatio="xMidYMid meet" viewBox="0 0 640 640" width="640" height="640"><defs><path d="M523.72 295.69C523.72 392.27 445.31 470.69 348.72 470.69C252.14 470.69 173.72 392.27 173.72 295.69C173.72 199.1 252.14 120.69 348.72 120.69C445.31 120.69 523.72 199.1 523.72 295.69Z" id="e1i2dapIs"></path><path d="M419.9 280.81C424.68 283.57 426.32 289.68 423.56 294.47C409.45 318.9 372.14 383.52 358.04 407.95C355.28 412.73 349.16 414.37 344.38 411.61C341.93 410.19 343.24 410.95 340.79 409.54C336.01 406.78 334.37 400.66 337.13 395.88C351.24 371.45 388.55 306.83 402.65 282.4C405.41 277.62 411.53 275.98 416.31 278.74C418.76 280.15 417.45 279.39 419.9 280.81Z" id="d38bavIxq"></path><path d="M277.82 278.74C282.61 275.98 288.72 277.62 291.49 282.4C305.59 306.83 342.9 371.45 357 395.88C359.77 400.66 358.13 406.78 353.34 409.54C350.9 410.95 352.21 410.19 349.76 411.61C344.98 414.37 338.86 412.73 336.1 407.95C322 383.52 284.69 318.9 270.58 294.47C267.82 289.69 269.46 283.57 274.24 280.81C276.69 279.39 275.38 280.15 277.82 278.74Z" id="ceybY8UaC"></path><path d="M419.9 202.53C424.68 205.29 426.32 211.41 423.56 216.19C409.45 240.62 372.14 305.24 358.04 329.67C355.28 334.45 349.16 336.09 344.38 333.33C341.93 331.92 343.24 332.68 340.79 331.26C336.01 328.5 334.37 322.38 337.13 317.6C351.24 293.17 388.55 228.55 402.65 204.12C405.41 199.34 411.53 197.7 416.31 200.46C418.76 201.88 417.45 201.12 419.9 202.53Z" id="c2D8YnfeDw"></path><path d="M277.83 200.46C282.61 197.7 288.72 199.34 291.49 204.12C305.59 228.55 342.9 293.17 357 317.6C359.76 322.38 358.13 328.5 353.34 331.26C350.89 332.68 352.21 331.92 349.76 333.33C344.98 336.09 338.86 334.45 336.1 329.67C322 305.24 284.68 240.62 270.58 216.19C267.82 211.41 269.46 205.29 274.24 202.53C276.69 201.12 275.38 201.88 277.83 200.46Z" id="cINUmvasJ"></path></defs><g><g><g><use xlink:href="#e1i2dapIs" opacity="1" fill="#000000" fill-opacity="0.1"></use><g><use xlink:href="#e1i2dapIs" opacity="1" fill-opacity="0" stroke="#ffffff" stroke-width="10" stroke-opacity="1"></use></g></g><g><use xlink:href="#d38bavIxq" opacity="1" fill="#ffffff" fill-opacity="1"></use></g><g><use xlink:href="#ceybY8UaC" opacity="1" fill="#ffffff" fill-opacity="1"></use></g><g><use xlink:href="#c2D8YnfeDw" opacity="1" fill="#ffffff" fill-opacity="1"></use></g><g><use xlink:href="#cINUmvasJ" opacity="1" fill="#ffffff" fill-opacity="1"></use></g></g></g></svg>