<?xml version="1.0" encoding="UTF-8" standalone="no"?>
<!DOCTYPE svg PUBLIC "-//W3C//DTD SVG 1.1//EN" "http://www.w3.org/Graphics/SVG/1.1/DTD/svg11.dtd">
<svg version="1.1" xmlns="http://www.w3.org/2000/svg" xmlns:xlink="http://www.w3.org/1999/xlink" preserveAspectRatio="xMidYMid meet" viewBox="0 0 640 640" width="640" height="640"><defs><path d="M239.49 150L239.49 166.03L254 166.03L254 150L269.87 150L269.87 198.55L254 198.55L254 182.29L239.49 182.29L239.49 198.55L223.63 198.55L223.63 150L223.63 150L239.49 150Z" id="b3oqWgmGcj"></path><path d="M276.76 166.1L276.76 150L320.56 150L320.56 166.1L306.59 166.1L306.59 198.55L290.73 198.55L290.73 166.1L290.73 166.1L276.76 166.1Z" id="alPN50Rda"></path><path d="M344.05 150L354.23 167.06L364.39 150L380.94 150L380.94 198.55L365.14 198.55L365.14 174.48L354.23 191.75L353.96 191.75L343.03 174.48L343.03 198.55L327.51 198.55L327.51 150L344.05 150Z" id="fdwdoMeoz"></path><path d="M404.7 150L404.7 182.5L427.01 182.5L427.01 198.55L388.84 198.55L388.84 150L404.7 150Z" id="cr4ZOxNmc"></path><path d="M200 219.82L450 219.82L427.21 481L324.94 510L222.76 480.98L200 219.82Z" id="g2gzd02GjG"></path><path d="M325 487.82L407.7 464.37L427.19 241.17L325 241.17L325 487.82Z" id="fjk0lTfwi"></path><path d="M255.01 370.06L363.55 370.06L359.91 411.61L324.96 421.27L290.08 411.62L287.75 384.95L256.32 384.95L260.81 436.37L324.95 454.59L389.18 436.37L397.79 338.04L283.65 338.04L280.79 305.23L400.53 305.23L400.63 305.23L403.43 273.2L246.57 273.2L255.01 370.06Z" id="b5c2ZASVWs"></path><path d="M246.57 273.2L255.01 370.06L325 370.06L325 338.04L283.65 338.04L280.79 305.23L325 305.23L325 273.2L246.57 273.2Z" id="dXFmGCcOD"></path><path d="M324.96 421.27L290.08 411.62L287.75 384.95L256.32 384.95L260.81 436.37L324.95 454.59L325 454.58L325 421.26L324.96 421.27Z" id="d30hXbhlqV"></path></defs><g><g><g><use xlink:href="#b3oqWgmGcj" opacity="1" fill="#000000" fill-opacity="1"></use><g><use xlink:href="#b3oqWgmGcj" opacity="1" fill-opacity="0" stroke="#000000" stroke-width="1" stroke-opacity="0"></use></g></g><g><use xlink:href="#alPN50Rda" opacity="1" fill="#000000" fill-opacity="1"></use><g><use xlink:href="#alPN50Rda" opacity="1" fill-opacity="0" stroke="#000000" stroke-width="1" stroke-opacity="0"></use></g></g><g><use xlink:href="#fdwdoMeoz" opacity="1" fill="#000000" fill-opacity="1"></use><g><use xlink:href="#fdwdoMeoz" opacity="1" fill-opacity="0" stroke="#000000" stroke-width="1" stroke-opacity="0"></use></g></g><g><use xlink:href="#cr4ZOxNmc" opacity="1" fill="#000000" fill-opacity="1"></use><g><use xlink:href="#cr4ZOxNmc" opacity="1" fill-opacity="0" stroke="#000000" stroke-width="1" stroke-opacity="0"></use></g></g><g><use xlink:href="#g2gzd02GjG" opacity="1" fill="#e34e26" fill-opacity="1"></use><g><use xlink:href="#g2gzd02GjG" opacity="1" fill-opacity="0" stroke="#000000" stroke-width="1" stroke-opacity="0"></use></g></g><g><use xlink:href="#fjk0lTfwi" opacity="1" fill="#ef662a" fill-opacity="1"></use><g><use xlink:href="#fjk0lTfwi" opacity="1" fill-opacity="0" stroke="#000000" stroke-width="1" stroke-opacity="0"></use></g></g><g><use xlink:href="#b5c2ZASVWs" opacity="1" fill="#ffffff" fill-opacity="1"></use><g><use xlink:href="#b5c2ZASVWs" opacity="1" fill-opacity="0" stroke="#000000" stroke-width="1" stroke-opacity="0"></use></g></g><g><use xlink:href="#dXFmGCcOD" opacity="1" fill="#ebebeb" fill-opacity="1"></use><g><use xlink:href="#dXFmGCcOD" opacity="1" fill-opacity="0" stroke="#000000" stroke-width="1" stroke-opacity="0"></use></g></g><g><use xlink:href="#d30hXbhlqV" opacity="1" fill="#ebebeb" fill-opacity="1"></use><g><use xlink:href="#d30hXbhlqV" opacity="1" fill-opacity="0" stroke="#000000" stroke-width="1" stroke-opacity="0"></use></g></g></g></g></svg>