<?xml version="1.0" encoding="UTF-8" standalone="no"?>
<!DOCTYPE svg PUBLIC "-//W3C//DTD SVG 1.1//EN" "http://www.w3.org/Graphics/SVG/1.1/DTD/svg11.dtd">
<svg version="1.1" xmlns="http://www.w3.org/2000/svg" xmlns:xlink="http://www.w3.org/1999/xlink" preserveAspectRatio="xMidYMid meet" viewBox="0 0 640 640" width="640" height="640"><defs><path d="M510 125L510 485L150 485L150 125L510 125Z" id="drWeGcPCh"></path><path d="M244.66 425.84C261.19 415.84 270.37 410.28 272.21 409.17C277.52 418.59 282.36 426.57 293.95 426.57C305.07 426.57 312.08 422.22 312.08 405.3C312.08 397.63 312.08 359.29 312.08 290.27L345.91 290.27C345.91 359.58 345.91 398.08 345.91 405.78C345.91 440.82 325.37 456.77 295.4 456.77C268.34 456.77 252.63 442.75 244.66 425.84" id="a2V3Ey38j1"></path><path d="M364.29 422.22C380.81 412.65 390 407.33 391.83 406.27C399.08 418.11 408.51 426.81 425.18 426.81C439.2 426.81 448.14 419.8 448.14 410.13C448.14 398.53 438.96 394.43 423.49 387.66C422.64 387.3 415.88 384.4 415.03 384.03C390.63 373.65 374.43 360.6 374.43 333.05C374.43 307.67 393.77 288.34 423.97 288.34C445.48 288.34 460.95 295.83 472.06 315.41C469.43 317.1 448.36 330.63 445.72 332.32C439.92 321.93 433.64 317.82 423.97 317.82C414.07 317.82 407.78 324.11 407.78 332.32C407.78 342.47 414.07 346.58 428.56 352.86C429.41 353.23 436.18 356.13 437.02 356.49C465.78 368.81 481.97 381.38 481.97 409.65C481.97 440.1 458.05 456.77 425.91 456.77C394.49 456.77 374.19 441.79 364.29 422.22" id="bf6bvB2NI"></path></defs><g><g><g><use xlink:href="#drWeGcPCh" opacity="1" fill="#f7df1e" fill-opacity="1"></use><g><use xlink:href="#drWeGcPCh" opacity="1" fill-opacity="0" stroke="#000000" stroke-width="1" stroke-opacity="0"></use></g></g><g><use xlink:href="#a2V3Ey38j1" opacity="1" fill="#000000" fill-opacity="1"></use><g><use xlink:href="#a2V3Ey38j1" opacity="1" fill-opacity="0" stroke="#000000" stroke-width="1" stroke-opacity="0"></use></g></g><g><use xlink:href="#bf6bvB2NI" opacity="1" fill="#000000" fill-opacity="1"></use><g><use xlink:href="#bf6bvB2NI" opacity="1" fill-opacity="0" stroke="#000000" stroke-width="1" stroke-opacity="0"></use></g></g></g></g></svg>