<?xml version="1.0" encoding="UTF-8" standalone="no"?>
<!DOCTYPE svg PUBLIC "-//W3C//DTD SVG 1.1//EN" "http://www.w3.org/Graphics/SVG/1.1/DTD/svg11.dtd">
<svg version="1.1" xmlns="http://www.w3.org/2000/svg" xmlns:xlink="http://www.w3.org/1999/xlink" preserveAspectRatio="xMidYMid meet" viewBox="0 0 640 640" width="640" height="640"><defs><path d="M342.28 125.35L348.51 125.77L354.38 126.35L359.91 127.07L365.11 127.92L369.99 128.9L374.55 130L378.8 131.2L382.77 132.51L386.45 133.9L389.86 135.38L393.01 136.92L395.91 138.54L398.56 140.2L400.99 141.91L403.19 143.66L405.19 145.43L406.98 147.22L408.59 149.02L410.01 150.82L411.27 152.61L412.37 154.38L413.32 156.13L414.13 157.84L414.82 159.5L415.39 161.11L415.85 162.66L416.22 164.14L416.5 165.53L416.7 166.83L416.84 168.04L416.92 169.14L416.96 170.12L416.97 170.97L416.95 171.69L416.91 172.27L416.88 172.69L416.85 172.95L416.84 173.04L416.84 252.41L416.75 255.92L416.48 259.25L416.06 262.41L415.47 265.39L414.75 268.22L413.88 270.88L412.89 273.39L411.78 275.75L410.56 277.96L409.24 280.04L407.83 281.97L406.34 283.78L404.77 285.45L403.14 287.01L401.46 288.44L399.73 289.76L397.96 290.98L396.17 292.09L394.36 293.1L392.54 294.02L390.72 294.84L388.9 295.58L387.11 296.24L385.34 296.83L383.61 297.34L381.93 297.79L380.3 298.17L378.73 298.5L377.24 298.77L375.83 298.99L374.51 299.18L373.29 299.32L372.18 299.43L371.19 299.51L370.33 299.56L369.6 299.6L369.02 299.61L368.59 299.62L368.33 299.62L368.24 299.62L281.74 299.62L277.95 299.72L274.35 299.99L270.95 300.44L267.73 301.06L264.69 301.83L261.82 302.74L259.13 303.79L256.6 304.96L254.23 306.25L252.01 307.64L249.94 309.13L248.01 310.7L246.23 312.36L244.58 314.08L243.05 315.86L241.65 317.68L240.37 319.55L239.2 321.44L238.13 323.35L237.17 325.28L236.31 327.2L235.54 329.11L234.85 331.01L234.25 332.87L233.73 334.7L233.27 336.48L232.88 338.2L232.56 339.85L232.29 341.43L232.06 342.91L231.89 344.31L231.75 345.6L231.66 346.77L231.59 347.81L231.54 348.73L231.52 349.5L231.51 350.11L231.51 350.56L231.51 350.84L231.51 350.93L231.51 393.95L201.05 393.95L200.95 393.95L200.68 393.96L200.23 393.96L199.62 393.95L198.85 393.91L197.95 393.83L196.91 393.72L195.74 393.55L194.46 393.32L193.07 393.01L191.59 392.63L190.02 392.15L188.38 391.58L186.67 390.9L184.9 390.1L183.08 389.17L181.23 388.11L179.34 386.9L177.44 385.53L175.53 384L173.61 382.3L171.71 380.41L169.83 378.33L167.97 376.05L166.15 373.56L164.39 370.85L162.67 367.91L161.03 364.73L159.46 361.3L157.98 357.61L156.59 353.66L155.31 349.43L154.15 344.92L153.11 340.11L152.2 334.99L151.43 329.57L150.82 323.82L150.37 317.73L150.1 311.31L150 304.54L150.11 297.77L150.43 291.37L150.94 285.31L151.64 279.6L152.52 274.23L153.56 269.17L154.75 264.43L156.09 260L157.55 255.85L159.14 251.99L160.84 248.4L162.64 245.08L164.52 242L166.48 239.18L168.51 236.58L170.59 234.21L172.72 232.05L174.87 230.1L177.05 228.34L179.24 226.76L181.44 225.36L183.62 224.12L185.77 223.03L187.9 222.09L189.98 221.29L192.01 220.6L193.97 220.04L195.85 219.57L197.65 219.2L199.35 218.91L200.94 218.7L202.4 218.56L203.74 218.46L204.93 218.42L205.97 218.4L206.85 218.41L207.55 218.44L208.06 218.47L208.38 218.5L208.49 218.51L330.34 218.51L330.34 206.12L243.13 206.12L243.02 164.84L328.71 125L335.68 125.09L342.28 125.35ZM277.94 152.99L276.65 153.26L275.41 153.64L274.21 154.12L273.06 154.7L271.97 155.36L270.94 156.11L269.98 156.93L269.08 157.83L268.26 158.8L267.52 159.84L266.86 160.94L266.29 162.09L265.81 163.29L265.43 164.54L265.16 165.84L264.99 167.17L264.93 168.53L264.99 169.89L265.16 171.22L265.43 172.51L265.81 173.77L266.29 174.97L266.86 176.12L267.52 177.22L268.26 178.26L269.08 179.23L269.98 180.13L270.94 180.95L271.97 181.7L273.06 182.36L274.21 182.93L275.41 183.41L276.65 183.8L277.94 184.07L279.26 184.24L280.62 184.3L281.97 184.24L283.3 184.07L284.58 183.8L285.83 183.41L287.03 182.93L288.17 182.36L289.26 181.7L290.29 180.95L291.26 180.13L292.16 179.23L292.98 178.26L293.72 177.22L294.38 176.12L294.95 174.97L295.43 173.77L295.8 172.51L296.08 171.22L296.25 169.89L296.31 168.53L296.26 167.62L296.13 166.71L295.92 165.82L295.61 164.93L295.22 164.05L294.74 163.19L294.18 162.33L293.53 161.48L292.79 160.64L291.96 159.81L291.05 158.99L290.05 158.18L288.96 157.38L287.79 156.58L286.53 155.8L285.18 155.02L283.75 154.26L282.23 153.5L280.62 152.76L279.26 152.81L277.94 152.99Z" id="a3fJcFrfyI"></path><linearGradient id="gradienta3meyJQUU" gradientUnits="userSpaceOnUse" x1="184.6" y1="157.38" x2="362.61" y2="335.33"><stop style="stop-color: #387eb8;stop-opacity: 1" offset="0%"></stop><stop style="stop-color: #366994;stop-opacity: 1" offset="100%"></stop></linearGradient><path d="M461.15 216.1L462.06 216.17L463.1 216.29L464.27 216.46L465.55 216.69L466.94 216.99L468.42 217.38L469.99 217.85L471.63 218.42L473.34 219.11L475.11 219.91L476.93 220.83L478.78 221.9L480.67 223.11L482.57 224.47L484.48 226L486.4 227.7L488.3 229.59L490.18 231.67L492.04 233.95L493.85 236.44L495.62 239.15L497.33 242.1L498.98 245.28L500.55 248.7L502.03 252.39L503.42 256.34L504.7 260.57L505.86 265.09L506.9 269.9L507.81 275.01L508.58 280.44L509.19 286.19L509.63 292.27L509.91 298.69L510 305.47L509.9 312.23L509.58 318.64L509.07 324.69L508.37 330.4L507.49 335.78L506.45 340.83L505.26 345.57L503.92 350.01L502.46 354.15L500.87 358.02L499.17 361.6L497.37 364.93L495.49 368L493.53 370.83L491.5 373.42L489.42 375.79L487.29 377.95L485.14 379.91L482.96 381.67L480.76 383.24L478.57 384.65L476.39 385.88L474.23 386.97L472.11 387.91L470.03 388.72L468 389.4L466.04 389.97L464.16 390.43L462.36 390.8L460.66 391.09L459.07 391.3L457.61 391.45L456.27 391.54L455.08 391.59L454.04 391.6L453.16 391.59L452.46 391.56L451.95 391.53L451.63 391.51L451.52 391.5L329.67 391.5L329.67 403.89L416.88 403.89L416.99 445.16L331.3 485L324.33 484.91L317.73 484.65L311.5 484.23L305.63 483.66L300.09 482.94L294.9 482.08L290.02 481.1L285.46 480.01L281.2 478.8L277.24 477.5L273.56 476.1L270.15 474.63L267 473.08L264.1 471.47L261.45 469.8L259.02 468.09L256.82 466.35L254.82 464.58L253.03 462.79L251.42 460.99L250 459.19L248.74 457.4L247.64 455.62L246.69 453.88L245.88 452.17L245.19 450.5L244.62 448.89L244.16 447.34L243.79 445.87L243.51 444.47L243.31 443.17L243.17 441.96L243.09 440.87L243.05 439.89L243.04 439.03L243.06 438.31L243.1 437.74L243.13 437.32L243.16 437.06L243.17 436.97L243.17 357.6L243.26 354.09L243.53 350.76L243.95 347.6L244.53 344.61L245.26 341.79L246.13 339.12L247.12 336.61L248.23 334.25L249.45 332.04L250.77 329.97L252.18 328.03L253.67 326.23L255.24 324.55L256.87 323L258.55 321.56L260.28 320.24L262.05 319.03L263.84 317.92L265.65 316.9L267.47 315.99L269.29 315.16L271.11 314.42L272.9 313.76L274.67 313.18L276.4 312.66L278.08 312.22L279.71 311.83L281.27 311.51L282.77 311.23L284.18 311.01L285.5 310.83L286.72 310.68L287.83 310.58L288.82 310.5L289.68 310.44L290.41 310.41L290.99 310.39L291.42 310.38L291.68 310.38L291.77 310.38L378.27 310.38L382.06 310.29L385.66 310.01L389.06 309.56L392.28 308.95L395.32 308.18L398.19 307.27L400.88 306.22L403.41 305.05L405.78 303.76L408 302.37L410.07 300.88L411.99 299.3L413.78 297.65L415.43 295.93L416.96 294.15L418.36 292.32L419.64 290.46L420.81 288.56L421.88 286.65L422.84 284.73L423.7 282.81L424.47 280.89L425.15 279L425.76 277.13L426.28 275.31L426.74 273.53L427.13 271.81L427.45 270.16L427.72 268.58L427.94 267.09L428.12 265.7L428.25 264.41L428.35 263.24L428.42 262.19L428.47 261.28L428.49 260.51L428.5 259.9L428.5 259.44L428.5 259.17L428.5 259.07L428.5 216.06L458.96 216.06L459.06 216.05L459.33 216.05L459.78 216.04L460.39 216.06L461.15 216.1ZM376.71 425.93L375.43 426.21L374.18 426.59L372.98 427.07L371.84 427.64L370.75 428.31L369.71 429.05L368.75 429.88L367.85 430.78L367.03 431.75L366.29 432.78L365.63 433.88L365.06 435.03L364.58 436.24L364.2 437.49L363.93 438.78L363.76 440.11L363.7 441.48L363.74 442.39L363.87 443.29L364.09 444.19L364.4 445.07L364.79 445.95L365.27 446.82L365.83 447.68L366.48 448.52L367.22 449.36L368.05 450.19L368.96 451.01L369.96 451.83L371.05 452.63L372.22 453.42L373.48 454.21L374.83 454.98L376.26 455.74L377.78 456.5L379.39 457.25L380.75 457.19L382.07 457.02L383.36 456.74L384.6 456.36L385.8 455.88L386.94 455.31L388.04 454.65L389.07 453.9L390.03 453.07L390.93 452.17L391.75 451.2L392.49 450.17L393.15 449.07L393.72 447.92L394.2 446.71L394.58 445.46L394.85 444.17L395.02 442.84L395.08 441.48L395.02 440.11L394.85 438.78L394.58 437.49L394.2 436.24L393.72 435.03L393.15 433.88L392.49 432.78L391.75 431.75L390.93 430.78L390.03 429.88L389.07 429.05L388.04 428.31L386.94 427.64L385.8 427.07L384.6 426.59L383.36 426.21L382.07 425.93L380.75 425.76L379.39 425.7L378.04 425.76L376.71 425.93Z" id="a1prw2qhYB"></path><linearGradient id="gradientb2O9qO5Gn" gradientUnits="userSpaceOnUse" x1="294.11" y1="271.39" x2="485.29" y2="453.88"><stop style="stop-color: #ffe052;stop-opacity: 1" offset="0%"></stop><stop style="stop-color: #ffc331;stop-opacity: 1" offset="100%"></stop></linearGradient></defs><g><g><g><use xlink:href="#a3fJcFrfyI" opacity="1" fill="url(#gradienta3meyJQUU)"></use><g><use xlink:href="#a3fJcFrfyI" opacity="1" fill-opacity="0" stroke="#000000" stroke-width="1" stroke-opacity="0"></use></g></g><g><use xlink:href="#a1prw2qhYB" opacity="1" fill="url(#gradientb2O9qO5Gn)"></use><g><use xlink:href="#a1prw2qhYB" opacity="1" fill-opacity="0" stroke="#000000" stroke-width="1" stroke-opacity="0"></use></g></g></g></g></svg>